{
  "accessors": [
    {
      "bufferView": 2,
      "componentType": 5126,
      "count": 459,
      "max": [
        16.590993881225586,
        43.75785827636719,
        16.59099769592285
      ],
      "min": [
        -16.590999603271484,
        -3.814697265625e-06,
        -16.590999603271484
      ],
      "type": "VEC3"
    },
    {
      "bufferView": 2,
      "byteOffset": 5508,
      "componentType": 5126,
      "count": 459,
      "max": [
        0.9949361681938171,
        1.0,
        0.9949360489845276
      ],
      "min": [
        -0.994935929775238,
        -1.0,
        -0.9949364066123962
      ],
      "type": "VEC3"
    },
    {
      "bufferView": 3,
      "componentType": 5126,
      "count": 459,
      "max": [
        1.0,
        0.882311999797821,
        1.0,
        1.0
      ],
      "min": [
        -1.0,
        -0.9932328462600708,
        -1.0,
        1.0
      ],
      "type": "VEC4"
    },
    {
      "bufferView": 1,
      "componentType": 5126,
      "count": 459,
      "max": [
        0.991237998008728,
        0.9891380071640015
      ],
      "min": [
        0.005797000136226416,
        0.005797000136226416
      ],
      "type": "VEC2"
    },
    {
      "bufferView": 0,
      "componentType": 5125,
      "count": 2220,
      "type": "SCALAR"
    }
  ],
  "asset": {
    "extras": {
      "author": "Toxic_Aura (https://sketchfab.com/toxicaura_)",
      "license": "CC-BY-4.0 (http://creativecommons.org/licenses/by/4.0/)",
      "source": "https://sketchfab.com/3d-models/coffee-cfe28b7d52ba4cbc8f1226c8bccc3cea",
      "title": "Coffee"
    },
    "generator": "Sketchfab-12.68.0",
    "version": "2.0"
  },
  "bufferViews": [
    {
      "buffer": 0,
      "byteLength": 8880,
      "name": "floatBufferViews",
      "target": 34963
    },
    {
      "buffer": 0,
      "byteLength": 3672,
      "byteOffset": 8880,
      "byteStride": 8,
      "name": "floatBufferViews",
      "target": 34962
    },
    {
      "buffer": 0,
      "byteLength": 11016,
      "byteOffset": 12552,
      "byteStride": 12,
      "name": "floatBufferViews",
      "target": 34962
    },
    {
      "buffer": 0,
      "byteLength": 7344,
      "byteOffset": 23568,
      "byteStride": 16,
      "name": "floatBufferViews",
      "target": 34962
    }
  ],
  "buffers": [
    {
      "byteLength": 30912,
      "uri": "scene.bin"
    }
  ],
  "images": [
    {
      "uri": "textures/Coffee_Mat_baseColor.png"
    },
    {
      "uri": "textures/Coffee_Mat_normal.png"
    }
  ],
  "materials": [
    {
      "doubleSided": true,
      "name": "Coffee_Mat",
      "normalTexture": {
        "index": 1
      },
      "pbrMetallicRoughness": {
        "baseColorTexture": {
          "index": 0
        },
        "metallicFactor": 0.0
      }
    }
  ],
  "meshes": [
    {
      "name": "Coffee_Coffee_Mat_0",
      "primitives": [
        {
          "attributes": {
            "NORMAL": 1,
            "POSITION": 0,
            "TANGENT": 2,
            "TEXCOORD_0": 3
          },
          "indices": 4,
          "material": 0,
          "mode": 4
        }
      ]
    }
  ],
  "nodes": [
    {
      "children": [
        1
      ],
      "matrix": [
        1.0,
        0.0,
        0.0,
        0.0,
        0.0,
        2.220446049250313e-16,
        -1.0,
        0.0,
        0.0,
        1.0,
        2.220446049250313e-16,
        0.0,
        0.0,
        0.0,
        0.0,
        1.0
      ],
      "name": "Sketchfab_model"
    },
    {
      "children": [
        2
      ],
      "matrix": [
        1.0,
        0.0,
        0.0,
        0.0,
        0.0,
        0.0,
        1.0,
        0.0,
        0.0,
        -1.0,
        0.0,
        0.0,
        0.0,
        0.0,
        0.0,
        1.0
      ],
      "name": "ecef2f9b81b94848b0b9865e0d2f855a.fbx"
    },
    {
      "children": [
        3
      ],
      "name": "RootNode"
    },
    {
      "children": [
        4
      ],
      "matrix": [
        2.944417976349031e-08,
        0.0,
        -0.38999998569488414,
        0.0,
        2.959972152324966e-07,
        0.38999998569477295,
        2.2347168070699676e-14,
        0.0,
        0.3899999856947718,
        -2.959972152324975e-07,
        2.944417976349031e-08,
        0.0,
        0.0,
        0.0,
        0.0,
        1.0
      ],
      "name": "Coffee"
    },
    {
      "mesh": 0,
      "name": "Coffee_Coffee_Mat_0"
    }
  ],
  "samplers": [
    {
      "magFilter": 9729,
      "minFilter": 9987,
      "wrapS": 10497,
      "wrapT": 10497
    }
  ],
  "scene": 0,
  "scenes": [
    {
      "name": "Sketchfab_Scene",
      "nodes": [
        0
      ]
    }
  ],
  "textures": [
    {
      "sampler": 0,
      "source": 0
    },
    {
      "sampler": 0,
      "source": 1
    }
  ]
}
