{
  "accessors": [
    {
      "bufferView": 2,
      "componentType": 5126,
      "count": 44286,
      "max": [
        -0.03696078062057495,
        1.6632553339004517,
        0.0776548683643341
      ],
      "min": [
        -0.4196704924106598,
        0.004746405407786369,
        -0.5040423274040222
      ],
      "type": "VEC3"
    },
    {
      "bufferView": 2,
      "byteOffset": 531432,
      "componentType": 5126,
      "count": 44286,
      "max": [
        0.9999589323997498,
        0.9999570250511169,
        0.9999479055404663
      ],
      "min": [
        -0.9999984502792358,
        -0.9999544024467468,
        -0.9999700784683228
      ],
      "type": "VEC3"
    },
    {
      "bufferView": 1,
      "componentType": 5126,
      "count": 44286,
      "max": [
        0.9980000257492065,
        0.9980999827384949
      ],
      "min": [
        0.0027000000700354576,
        0.0272000003606081
      ],
      "type": "VEC2"
    },
    {
      "bufferView": 1,
      "byteOffset": 354288,
      "componentType": 5126,
      "count": 44286,
      "max": [
        0.9980000257492065,
        0.9980999827384949
      ],
      "min": [
        0.0027000000700354576,
        0.0272000003606081
      ],
      "type": "VEC2"
    },
    {
      "bufferView": 1,
      "byteOffset": 708576,
      "componentType": 5126,
      "count": 44286,
      "max": [
        0.9980000257492065,
        0.9980999827384949
      ],
      "min": [
        0.0027000000700354576,
        0.0272000003606081
      ],
      "type": "VEC2"
    },
    {
      "bufferView": 1,
      "byteOffset": 1062864,
      "componentType": 5126,
      "count": 44286,
      "max": [
        0.9980000257492065,
        0.9980999827384949
      ],
      "min": [
        0.0027000000700354576,
        0.0272000003606081
      ],
      "type": "VEC2"
    },
    {
      "bufferView": 1,
      "byteOffset": 1417152,
      "componentType": 5126,
      "count": 44286,
      "max": [
        0.9980000257492065,
        0.9980999827384949
      ],
      "min": [
        0.0027000000700354576,
        0.0272000003606081
      ],
      "type": "VEC2"
    },
    {
      "bufferView": 1,
      "byteOffset": 1771440,
      "componentType": 5126,
      "count": 44286,
      "max": [
        0.9980000257492065,
        0.9980999827384949
      ],
      "min": [
        0.0027000000700354576,
        0.0272000003606081
      ],
      "type": "VEC2"
    },
    {
      "bufferView": 1,
      "byteOffset": 2125728,
      "componentType": 5126,
      "count": 44286,
      "max": [
        0.9980000257492065,
        0.9980999827384949
      ],
      "min": [
        0.0027000000700354576,
        0.0272000003606081
      ],
      "type": "VEC2"
    },
    {
      "bufferView": 1,
      "byteOffset": 2480016,
      "componentType": 5126,
      "count": 44286,
      "max": [
        0.9980000257492065,
        0.9980999827384949
      ],
      "min": [
        0.0027000000700354576,
        0.0272000003606081
      ],
      "type": "VEC2"
    },
    {
      "bufferView": 1,
      "byteOffset": 2834304,
      "componentType": 5126,
      "count": 44286,
      "max": [
        0.9980000257492065,
        0.9980999827384949
      ],
      "min": [
        0.0027000000700354576,
        0.0272000003606081
      ],
      "type": "VEC2"
    },
    {
      "bufferView": 1,
      "byteOffset": 3188592,
      "componentType": 5126,
      "count": 44286,
      "max": [
        0.9980000257492065,
        0.9980999827384949
      ],
      "min": [
        0.0027000000700354576,
        0.0272000003606081
      ],
      "type": "VEC2"
    },
    {
      "bufferView": 0,
      "componentType": 5125,
      "count": 240012,
      "type": "SCALAR"
    }
  ],
  "asset": {
    "extras": {
      "author": "suasanakreasi (https://sketchfab.com/suasanakreasi)",
      "license": "CC-BY-4.0 (http://creativecommons.org/licenses/by/4.0/)",
      "source": "https://sketchfab.com/3d-models/business-man-standing-d9ed9bb7baff4e03af19e439af1dd4d7",
      "title": "Business Man Standing"
    },
    "generator": "Sketchfab-13.31.0",
    "version": "2.0"
  },
  "bufferViews": [
    {
      "buffer": 0,
      "byteLength": 960048,
      "name": "floatBufferViews",
      "target": 34963
    },
    {
      "buffer": 0,
      "byteLength": 3542880,
      "byteOffset": 960048,
      "byteStride": 8,
      "name": "floatBufferViews",
      "target": 34962
    },
    {
      "buffer": 0,
      "byteLength": 1062864,
      "byteOffset": 4502928,
      "byteStride": 12,
      "name": "floatBufferViews",
      "target": 34962
    }
  ],
  "buffers": [
    {
      "byteLength": 5565792,
      "uri": "scene.bin"
    }
  ],
  "images": [
    {
      "uri": "textures/M_455555566666666_Material__2_baseColor.jpeg"
    }
  ],
  "materials": [
    {
      "doubleSided": true,
      "name": "M_455555566666666_Material__2",
      "pbrMetallicRoughness": {
        "baseColorTexture": {
          "index": 0
        },
        "metallicFactor": 0.0,
        "roughnessFactor": 0.9302134966129227
      }
    }
  ],
  "meshes": [
    {
      "name": "Mesh1_M_455555566666666_Material__2_0",
      "primitives": [
        {
          "attributes": {
            "NORMAL": 1,
            "POSITION": 0,
            "TEXCOORD_0": 2,
            "TEXCOORD_1": 3,
            "TEXCOORD_2": 4,
            "TEXCOORD_3": 5,
            "TEXCOORD_4": 6,
            "TEXCOORD_5": 7,
            "TEXCOORD_6": 8,
            "TEXCOORD_7": 9,
            "TEXCOORD_8": 10,
            "TEXCOORD_9": 11
          },
          "indices": 12,
          "material": 0,
          "mode": 4
        }
      ]
    }
  ],
  "nodes": [
    {
      "children": [
        1
      ],
      "matrix": [
        1.0,
        0.0,
        0.0,
        0.0,
        0.0,
        2.220446049250313e-16,
        -1.0,
        0.0,
        0.0,
        1.0,
        2.220446049250313e-16,
        0.0,
        0.0,
        0.0,
        0.0,
        1.0
      ],
      "name": "Sketchfab_model"
    },
    {
      "children": [
        2
      ],
      "matrix": [
        0.009999999776482582,
        0.0,
        0.0,
        0.0,
        0.0,
        0.0,
        0.009999999776482582,
        0.0,
        0.0,
        -0.009999999776482582,
        0.0,
        0.0,
        0.0,
        0.0,
        0.0,
        1.0
      ],
      "name": "business man standing.fbx"
    },
    {
      "children": [
        3
      ],
      "name": "RootNode"
    },
    {
      "children": [
        4
      ],
      "name": "Model"
    },
    {
      "children": [
        5
      ],
      "name": "G_455555566666666_1"
    },
    {
      "children": [
        6
      ],
      "name": "G_455555566666666_0"
    },
    {
      "children": [
        7
      ],
      "name": "Mesh1"
    },
    {
      "mesh": 0,
      "name": "Mesh1_M_455555566666666_Material__2_0"
    }
  ],
  "samplers": [
    {
      "magFilter": 9729,
      "minFilter": 9987,
      "wrapS": 10497,
      "wrapT": 10497
    }
  ],
  "scene": 0,
  "scenes": [
    {
      "name": "Sketchfab_Scene",
      "nodes": [
        0
      ]
    }
  ],
  "textures": [
    {
      "sampler": 0,
      "source": 0
    }
  ]
}
