{
  "accessors": [
    {
      "bufferView": 2,
      "componentType": 5126,
      "count": 9626,
      "max": [
        17.71695327758789,
        6.686064720153809,
        1.9171335697174072
      ],
      "min": [
        -17.35287094116211,
        -6.686064720153809,
        -1.5106337070465088
      ],
      "type": "VEC3"
    },
    {
      "bufferView": 2,
      "byteOffset": 115512,
      "componentType": 5126,
      "count": 9626,
      "max": [
        1.0,
        1.0,
        1.0
      ],
      "min": [
        -1.0,
        -1.0,
        -1.0
      ],
      "type": "VEC3"
    },
    {
      "bufferView": 1,
      "componentType": 5126,
      "count": 9626,
      "max": [
        0.999125063419342,
        0.9991075992584229
      ],
      "min": [
        0.0008745193481445313,
        0.0008745193481445313
      ],
      "type": "VEC2"
    },
    {
      "bufferView": 0,
      "componentType": 5125,
      "count": 35988,
      "type": "SCALAR"
    },
    {
      "bufferView": 2,
      "byteOffset": 231024,
      "componentType": 5126,
      "count": 2352,
      "max": [
        1.0,
        0.9999999403953552,
        1.0
      ],
      "min": [
        -14.447183609008789,
        -0.9999999403953552,
        -5.000269412994385
      ],
      "type": "VEC3"
    },
    {
      "bufferView": 2,
      "byteOffset": 259248,
      "componentType": 5126,
      "count": 2352,
      "max": [
        0.9999971985816956,
        1.0,
        1.0
      ],
      "min": [
        -0.9999971985816956,
        -1.0,
        -0.999884843826294
      ],
      "type": "VEC3"
    },
    {
      "bufferView": 1,
      "byteOffset": 77008,
      "componentType": 5126,
      "count": 2352,
      "max": [
        0.9494763612747192,
        0.9996137619018555
      ],
      "min": [
        0.0003857612609863281,
        0.00038558244705200195
      ],
      "type": "VEC2"
    },
    {
      "bufferView": 0,
      "byteOffset": 143952,
      "componentType": 5125,
      "count": 11538,
      "type": "SCALAR"
    }
  ],
  "asset": {
    "extras": {
      "author": "danieljerbi910 (https://sketchfab.com/danieljerbi910)",
      "license": "CC-BY-4.0 (http://creativecommons.org/licenses/by/4.0/)",
      "source": "https://sketchfab.com/3d-models/street-lamp-13073fd9f20547d08b7cc59dcdb23106",
      "title": "Street Lamp"
    },
    "generator": "Sketchfab-14.41.0",
    "version": "2.0"
  },
  "bufferViews": [
    {
      "buffer": 0,
      "byteLength": 190104,
      "name": "floatBufferViews",
      "target": 34963
    },
    {
      "buffer": 0,
      "byteLength": 95824,
      "byteOffset": 190104,
      "byteStride": 8,
      "name": "floatBufferViews",
      "target": 34962
    },
    {
      "buffer": 0,
      "byteLength": 287472,
      "byteOffset": 285928,
      "byteStride": 12,
      "name": "floatBufferViews",
      "target": 34962
    }
  ],
  "buffers": [
    {
      "byteLength": 573400,
      "uri": "scene.bin"
    }
  ],
  "images": [
    {
      "uri": "textures/Material.001_baseColor.png"
    },
    {
      "uri": "textures/Material.001_metallicRoughness.png"
    },
    {
      "uri": "textures/Material.003_emissive.png"
    }
  ],
  "materials": [
    {
      "doubleSided": true,
      "name": "Material.001",
      "pbrMetallicRoughness": {
        "baseColorTexture": {
          "index": 0
        },
        "metallicFactor": 0.0,
        "metallicRoughnessTexture": {
          "index": 1
        }
      }
    },
    {
      "doubleSided": true,
      "emissiveFactor": [
        1.0,
        1.0,
        1.0
      ],
      "emissiveTexture": {
        "index": 2
      },
      "name": "Material.003",
      "pbrMetallicRoughness": {
        "baseColorFactor": [
          0.8,
          0.8,
          0.8,
          1.0
        ],
        "metallicFactor": 0.0,
        "roughnessFactor": 0.8040408205773457
      }
    }
  ],
  "meshes": [
    {
      "name": "Stand_Material.001_0",
      "primitives": [
        {
          "attributes": {
            "NORMAL": 1,
            "POSITION": 0,
            "TEXCOORD_0": 2
          },
          "indices": 3,
          "material": 0,
          "mode": 4
        }
      ]
    },
    {
      "name": "Light_Material.003_0",
      "primitives": [
        {
          "attributes": {
            "NORMAL": 5,
            "POSITION": 4,
            "TEXCOORD_0": 6
          },
          "indices": 7,
          "material": 1,
          "mode": 4
        }
      ]
    }
  ],
  "nodes": [
    {
      "children": [
        1
      ],
      "matrix": [
        0.2137932926416397,
        0.0,
        0.0,
        0.0,
        0.0,
        4.747164720023449e-17,
        -0.2137932926416397,
        0.0,
        0.0,
        0.2137932926416397,
        4.747164720023449e-17,
        0.0,
        0.0,
        0.0,
        0.0,
        1.0
      ],
      "name": "Sketchfab_model"
    },
    {
      "children": [
        2
      ],
      "matrix": [
        0.009999999776482582,
        0.0,
        0.0,
        0.0,
        0.0,
        0.0,
        0.009999999776482582,
        0.0,
        0.0,
        -0.009999999776482582,
        0.0,
        0.0,
        0.0,
        0.0,
        0.0,
        1.0
      ],
      "name": "streetlanp.fbx"
    },
    {
      "children": [
        3,
        5
      ],
      "name": "RootNode"
    },
    {
      "children": [
        4
      ],
      "matrix": [
        14.956480026245117,
        0.0,
        0.0,
        0.0,
        0.0,
        -2.436719887186211e-06,
        -14.95648002624492,
        0.0,
        0.0,
        470.5180664062438,
        -7.66571230450371e-05,
        0.0,
        0.0,
        711.195068359375,
        0.0,
        1.0
      ],
      "name": "Stand"
    },
    {
      "mesh": 0,
      "name": "Stand_Material.001_0"
    },
    {
      "children": [
        6
      ],
      "matrix": [
        28.598609924316406,
        0.0,
        0.0,
        0.0,
        0.0,
        -4.659304958531601e-06,
        -28.59860992431603,
        0.0,
        0.0,
        28.59860992431603,
        -4.659304958531601e-06,
        0.0,
        194.1280975341797,
        1498.5623779296875,
        0.0,
        1.0
      ],
      "name": "Light"
    },
    {
      "mesh": 1,
      "name": "Light_Material.003_0"
    }
  ],
  "samplers": [
    {
      "magFilter": 9729,
      "minFilter": 9987,
      "wrapS": 10497,
      "wrapT": 10497
    }
  ],
  "scene": 0,
  "scenes": [
    {
      "name": "Sketchfab_Scene",
      "nodes": [
        0
      ]
    }
  ],
  "textures": [
    {
      "sampler": 0,
      "source": 0
    },
    {
      "sampler": 0,
      "source": 1
    },
    {
      "sampler": 0,
      "source": 2
    }
  ]
}
