{
  "accessors": [
    {
      "bufferView": 2,
      "componentType": 5126,
      "count": 12764,
      "max": [
        0.3098074197769165,
        1.7142935991287231,
        0.2985989451408386
      ],
      "min": [
        -0.380427747964859,
        0.006462755147367716,
        -0.19128569960594177
      ],
      "type": "VEC3"
    },
    {
      "bufferView": 2,
      "byteOffset": 153168,
      "componentType": 5126,
      "count": 12764,
      "max": [
        0.9999716281890869,
        0.9992725849151611,
        0.9999578595161438
      ],
      "min": [
        -0.9999319314956665,
        -0.9999991655349731,
        -0.9999316334724426
      ],
      "type": "VEC3"
    },
    {
      "bufferView": 1,
      "componentType": 5126,
      "count": 12764,
      "max": [
        95.270751953125,
        866.5152587890625
      ],
      "min": [
        -97.84263610839844,
        -22.468603134155273
      ],
      "type": "VEC2"
    },
    {
      "bufferView": 1,
      "byteOffset": 102112,
      "componentType": 5126,
      "count": 12764,
      "max": [
        95.270751953125,
        866.5152587890625
      ],
      "min": [
        -97.84263610839844,
        -22.468603134155273
      ],
      "type": "VEC2"
    },
    {
      "bufferView": 1,
      "byteOffset": 204224,
      "componentType": 5126,
      "count": 12764,
      "max": [
        95.270751953125,
        866.5152587890625
      ],
      "min": [
        -97.84263610839844,
        -22.468603134155273
      ],
      "type": "VEC2"
    },
    {
      "bufferView": 1,
      "byteOffset": 306336,
      "componentType": 5126,
      "count": 12764,
      "max": [
        95.270751953125,
        866.5152587890625
      ],
      "min": [
        -97.84263610839844,
        -22.468603134155273
      ],
      "type": "VEC2"
    },
    {
      "bufferView": 1,
      "byteOffset": 408448,
      "componentType": 5126,
      "count": 12764,
      "max": [
        95.270751953125,
        866.5152587890625
      ],
      "min": [
        -97.84263610839844,
        -22.468603134155273
      ],
      "type": "VEC2"
    },
    {
      "bufferView": 1,
      "byteOffset": 510560,
      "componentType": 5126,
      "count": 12764,
      "max": [
        95.270751953125,
        866.5152587890625
      ],
      "min": [
        -97.84263610839844,
        -22.468603134155273
      ],
      "type": "VEC2"
    },
    {
      "bufferView": 1,
      "byteOffset": 612672,
      "componentType": 5126,
      "count": 12764,
      "max": [
        95.270751953125,
        866.5152587890625
      ],
      "min": [
        -97.84263610839844,
        -22.468603134155273
      ],
      "type": "VEC2"
    },
    {
      "bufferView": 1,
      "byteOffset": 714784,
      "componentType": 5126,
      "count": 12764,
      "max": [
        95.270751953125,
        866.5152587890625
      ],
      "min": [
        -97.84263610839844,
        -22.468603134155273
      ],
      "type": "VEC2"
    },
    {
      "bufferView": 1,
      "byteOffset": 816896,
      "componentType": 5126,
      "count": 12764,
      "max": [
        95.270751953125,
        866.5152587890625
      ],
      "min": [
        -97.84263610839844,
        -22.468603134155273
      ],
      "type": "VEC2"
    },
    {
      "bufferView": 1,
      "byteOffset": 919008,
      "componentType": 5126,
      "count": 12764,
      "max": [
        95.270751953125,
        866.5152587890625
      ],
      "min": [
        -97.84263610839844,
        -22.468603134155273
      ],
      "type": "VEC2"
    },
    {
      "bufferView": 0,
      "componentType": 5125,
      "count": 54072,
      "type": "SCALAR"
    }
  ],
  "asset": {
    "extras": {
      "author": "pjotr.van.schothorst (https://sketchfab.com/pjotr.van.schothorst)",
      "license": "CC-BY-4.0 (http://creativecommons.org/licenses/by/4.0/)",
      "source": "https://sketchfab.com/3d-models/lady-waving-20kpolys-b7985fa83e56440b8eca92afdd465bfb",
      "title": "Lady Waving-20kpolys"
    },
    "generator": "Sketchfab-12.64.0",
    "version": "2.0"
  },
  "bufferViews": [
    {
      "buffer": 0,
      "byteLength": 216288,
      "name": "floatBufferViews",
      "target": 34963
    },
    {
      "buffer": 0,
      "byteLength": 1021120,
      "byteOffset": 216288,
      "byteStride": 8,
      "name": "floatBufferViews",
      "target": 34962
    },
    {
      "buffer": 0,
      "byteLength": 306336,
      "byteOffset": 1237408,
      "byteStride": 12,
      "name": "floatBufferViews",
      "target": 34962
    }
  ],
  "buffers": [
    {
      "byteLength": 1543744,
      "uri": "scene.bin"
    }
  ],
  "images": [
    {
      "uri": "textures/Material_1_baseColor.jpeg"
    }
  ],
  "materials": [
    {
      "doubleSided": true,
      "name": "Material_1",
      "pbrMetallicRoughness": {
        "baseColorTexture": {
          "index": 0
        },
        "metallicFactor": 0.0,
        "roughnessFactor": 0.9302134966129227
      }
    }
  ],
  "meshes": [
    {
      "name": "Mesh1_Material_1_0",
      "primitives": [
        {
          "attributes": {
            "NORMAL": 1,
            "POSITION": 0,
            "TEXCOORD_0": 2,
            "TEXCOORD_1": 3,
            "TEXCOORD_2": 4,
            "TEXCOORD_3": 5,
            "TEXCOORD_4": 6,
            "TEXCOORD_5": 7,
            "TEXCOORD_6": 8,
            "TEXCOORD_7": 9,
            "TEXCOORD_8": 10,
            "TEXCOORD_9": 11
          },
          "indices": 12,
          "material": 0,
          "mode": 4
        }
      ]
    }
  ],
  "nodes": [
    {
      "children": [
        1
      ],
      "matrix": [
        1.0,
        0.0,
        0.0,
        0.0,
        0.0,
        2.220446049250313e-16,
        -1.0,
        0.0,
        0.0,
        1.0,
        2.220446049250313e-16,
        0.0,
        0.0,
        0.0,
        0.0,
        1.0
      ],
      "name": "Sketchfab_model"
    },
    {
      "children": [
        2
      ],
      "matrix": [
        1.0,
        0.0,
        0.0,
        0.0,
        0.0,
        0.0,
        1.0,
        0.0,
        0.0,
        -1.0,
        0.0,
        0.0,
        0.0,
        0.0,
        0.0,
        1.0
      ],
      "name": "Lady waving-20kpolys.fbx"
    },
    {
      "children": [
        3
      ],
      "name": "RootNode"
    },
    {
      "children": [
        4
      ],
      "name": "Model"
    },
    {
      "children": [
        5
      ],
      "name": "Group1_1"
    },
    {
      "children": [
        6
      ],
      "name": "Group2_1"
    },
    {
      "children": [
        7
      ],
      "name": "G_3DGeom_1_Defintion_1_1"
    },
    {
      "children": [
        8
      ],
      "name": "Mesh1"
    },
    {
      "mesh": 0,
      "name": "Mesh1_Material_1_0"
    }
  ],
  "samplers": [
    {
      "magFilter": 9729,
      "minFilter": 9987,
      "wrapS": 10497,
      "wrapT": 10497
    }
  ],
  "scene": 0,
  "scenes": [
    {
      "name": "Sketchfab_Scene",
      "nodes": [
        0
      ]
    }
  ],
  "textures": [
    {
      "sampler": 0,
      "source": 0
    }
  ]
}
